<svg width="40" height="40" viewBox="0 0 40 40" fill="none" xmlns="http://www.w3.org/2000/svg">
    <path d="M8.334 18.333v-.75a.75.75 0 0 0-.75.75h.75zm23.333 0h.75a.75.75 0 0 0-.75-.75v.75zm0 16.667v.75a.75.75 0 0 0 .75-.75h-.75zM8.334 35h-.75c0 .414.336.75.75.75V35zm0-15.917h23.333v-1.5H8.334v1.5zm22.583-.75V35h1.5V18.333h-1.5zm.75 15.917H8.334v1.5h23.333v-1.5zM9.084 35V18.333h-1.5V35h1.5zm5-23.333a5.917 5.917 0 0 1 5.917-5.917v-1.5a7.417 7.417 0 0 0-7.417 7.417h1.5zm5.917-5.917a5.917 5.917 0 0 1 5.916 5.917h1.5a7.417 7.417 0 0 0-7.416-7.417v1.5zm-7.417 5.917v6.666h1.5v-6.666h-1.5zm13.333 0v6.666h1.5v-6.666h-1.5z" fill="#545454"/>
</svg>
